<?xml version="1.0" standalone="no"?>
<!DOCTYPE svg PUBLIC "-//W3C//DTD SVG 20010904//EN"
 "http://www.w3.org/TR/2001/REC-SVG-20010904/DTD/svg10.dtd">
<svg version="1.0" xmlns="http://www.w3.org/2000/svg"
 width="700.000000pt" height="700.000000pt" viewBox="0 0 700.000000 700.000000"
 preserveAspectRatio="xMidYMid meet">
<metadata>
Created by potrace 1.11, written by Peter Selinger 2001-2013
</metadata>
<g transform="translate(0.000000,700.000000) scale(0.100000,-0.100000)"
fill="#000000" stroke="none">
<path d="M3708 6709 c-153 -24 -271 -160 -270 -313 0 -243 251 -400 466 -291
197 100 238 368 79 516 -82 77 -170 105 -275 88z"/>
<path d="M2981 6158 c-190 -33 -327 -204 -315 -392 13 -209 178 -362 385 -358
159 3 300 110 352 265 21 62 16 186 -8 247 -68 168 -243 269 -414 238z"/>
<path d="M3620 5511 c-103 -32 -212 -119 -257 -205 -92 -176 -64 -390 69 -525
187 -192 488 -177 665 32 105 123 123 331 43 487 -46 89 -156 178 -259 211
-72 22 -189 22 -261 0z"/>
<path d="M2525 4442 c-60 -5 -144 -23 -172 -37 -38 -19 -71 -55 -73 -80 -7
-68 0 -93 41 -135 63 -65 114 -80 271 -83 l73 -2 0 -262 c0 -159 3 -259 9
-256 5 4 6 1 0 -8 -12 -19 -12 -142 1 -151 6 -5 6 -8 0 -8 -11 0 -13 -239 -2
-257 4 -5 4 -13 0 -17 -9 -9 -9 -236 0 -236 5 0 5 -5 1 -12 -6 -10 -9 -302 -3
-318 1 -3 0 -9 -1 -15 -1 -5 -2 -46 -1 -90 0 -44 0 -489 1 -990 0 -501 4 -915
8 -921 11 -16 104 -77 118 -77 7 0 11 -4 9 -8 -7 -10 25 -20 37 -12 6 3 8 1 5
-4 -11 -18 264 -135 280 -119 3 3 12 1 19 -4 15 -13 46 -21 99 -25 22 -2 40
-5 40 -6 0 -1 11 -3 25 -5 148 -19 365 -19 460 1 41 8 86 18 100 20 95 20 278
103 401 184 l65 43 1 1777 0 1776 59 2 c113 3 149 7 186 19 146 50 190 205 77
273 -69 42 -117 44 -1133 45 -534 1 -984 0 -1001 -2z"/>
</g>
</svg>
