<?xml version="1.0" standalone="no"?>
<!DOCTYPE svg PUBLIC "-//W3C//DTD SVG 1.1//EN" "http://www.w3.org/Graphics/SVG/1.1/DTD/svg11.dtd">
<svg width="100%" height="100%" viewBox="0 0 512 512" version="1.1" xmlns="http://www.w3.org/2000/svg" xmlns:xlink="http://www.w3.org/1999/xlink" xml:space="preserve" style="fill-rule:evenodd;clip-rule:evenodd;stroke-linejoin:round;stroke-miterlimit:1.41421;">
  <g id="Layer 3">
    <g>
      <path d="M241.754,139.85c0,-17.961 14.559,-32.522 32.521,-32.522c17.961,0 32.52,14.561 32.52,32.522c0,17.96 -14.559,32.521 -32.52,32.521c-17.962,0 -32.521,-14.561 -32.521,-32.521" style="fill:#6f5390;fill-rule:nonzero;"/>
      <path d="M194.714,88.862c0,-15.332 12.427,-27.759 27.759,-27.759c15.331,0 27.758,12.427 27.758,27.759c0,15.331 -12.427,27.758 -27.758,27.758c-15.332,0 -27.759,-12.427 -27.759,-27.758" style="fill:#9a7dbd;fill-rule:nonzero;"/>
      <path d="M251.279,44.505c0,-13.086 10.608,-23.694 23.694,-23.694c13.085,0 23.692,10.608 23.692,23.694c0,13.086 -10.607,23.694 -23.692,23.694c-13.086,0 -23.694,-10.608 -23.694,-23.694" style="fill:#b398d4;fill-rule:nonzero;"/>
      <clipPath id="_clip1">
        <rect x="166.229" y="186.895" width="179.542" height="304.295"/>
      </clipPath>
      <g clip-path="url(#_clip1)">
        <path d="M323.632,186.895c34.042,0 22.282,23.019 7.909,24.221c-3.484,0.288 -5.871,0.8 -12.944,0.337l-1.307,0.416l0,-24.974l6.342,0Z" style="fill:#e1d1f4;fill-rule:nonzero;"/>
        <path d="M317.29,211.869l0,258.232l-0.767,-257.976l0.767,-0.256Z" style="fill:#e1d1f4;fill-rule:nonzero;"/>
        <path d="M317.29,186.895l0,24.974l-0.767,0.256l0.767,257.976c0,0 -31.203,22.7 -70.402,20.233c-28.764,-3.734 -49.862,-18.471 -51.326,-19.513c-0.034,-0.016 -0.052,-0.047 -0.087,-0.063l0,-258.633l-0.697,-0.225l-0.069,-25.005l122.581,0ZM202.671,458.406l0,6.681c20,15.283 39.112,19.767 55.471,19.175c29.949,-1.073 50.681,-19.175 50.681,-19.175l0,-47.513l0,-29.236l0,-71.285l0,-0.898l0,-58.247c-9.077,28.435 -19.042,38.318 -27.98,39.487c-7.056,0.931 -13.502,-3.602 -18.363,-8.714l0,-0.016l-0.017,0c-5.627,-5.911 -9.147,-12.606 -9.147,-12.606c-21.742,-44.054 -38.537,-24.349 -46.151,-10.093c-2.926,5.446 -4.494,10.093 -4.494,10.093l0,182.347Z" style="fill:#e1d1f4;fill-rule:nonzero;"/>
        <path d="M317.29,470.101l0,1.329c-24.443,18.502 -49.461,21.626 -70.402,18.903c39.199,2.467 70.402,-20.232 70.402,-20.232" style="fill:#e1d1f4;fill-rule:nonzero;"/>
        <path d="M308.823,417.573l0,47.514c0,0 -20.732,18.101 -50.681,19.174l27.945,-36.779l22.736,-29.909Z" style="fill:#51386f;fill-rule:nonzero;"/>
        <path d="M308.823,388.338l0,29.236l-43.729,-16.821l43.729,-12.415Z" style="fill:#51386f;fill-rule:nonzero;"/>
        <path d="M308.823,317.052l0,71.286l-22.736,-29.154l21.011,-41.555l0,-0.016l1.725,-0.561Z" style="fill:#6f5390;fill-rule:nonzero;"/>
        <path d="M308.823,316.155l0,0.897l-1.725,0.561l0,0.016l-72.493,23.852l27.858,-52.799l0.017,0c4.861,5.11 11.307,9.643 18.363,8.715l27.98,18.758Z" style="fill:#b398d4;fill-rule:nonzero;"/>
        <path d="M308.823,257.908l0,58.247l-27.98,-18.76c8.938,-1.169 18.903,-11.052 27.98,-39.487" style="fill:#9a7dbd;fill-rule:nonzero;"/>
        <path d="M286.087,359.183l22.736,29.156l-43.729,12.415l20.993,-41.571Z" style="fill:#b398d4;fill-rule:nonzero;"/>
        <path d="M308.823,417.573l-22.736,29.909l-20.993,-46.73l43.729,16.821Z" style="fill:#6f5390;fill-rule:nonzero;"/>
        <path d="M307.098,317.629l-21.011,41.555l-51.482,-17.703l72.493,-23.852Z" style="fill:#51386f;fill-rule:nonzero;"/>
        <path d="M286.087,447.482l-27.945,36.779l-23.432,-49.691l51.377,12.912Z" style="fill:#6f5390;fill-rule:nonzero;"/>
        <path d="M286.087,359.183l-20.993,41.571l-30.489,-59.272l51.482,17.701Z" style="fill:#9a7dbd;fill-rule:nonzero;"/>
        <path d="M265.094,400.753l20.993,46.729l-51.377,-12.913l30.384,-33.816Z" style="fill:#9a7dbd;fill-rule:nonzero;"/>
        <path d="M234.605,341.481l30.489,59.272l-45.907,-1.986l15.418,-57.286Z" style="fill:#6f5390;fill-rule:nonzero;"/>
        <path d="M265.094,400.753l-30.384,33.816l-16.029,-33.945l0,-0.015l0.506,-1.842l45.907,1.986Z" style="fill:#51386f;fill-rule:nonzero;"/>
        <rect x="262.463" y="288.665" width="0.017" height="0.016" style="fill:#e1d1f4;fill-rule:nonzero;"/>
        <path d="M262.463,288.666l0,0.015l-59.792,21.163l0,-33.785c0,0 1.568,-4.646 4.494,-10.093l55.298,22.7Z" style="fill:#9a7dbd;fill-rule:nonzero;"/>
        <path d="M262.463,288.682l-27.858,52.799l-31.934,-31.639l59.792,-21.16Z" style="fill:#6f5390;fill-rule:nonzero;"/>
        <path d="M262.463,288.666l-55.298,-22.7c7.614,-14.258 24.409,-33.96 46.151,10.093c0,0 3.52,6.695 9.147,12.607" style="fill:#b398d4;fill-rule:nonzero;"/>
        <path d="M234.71,434.57l23.432,49.693c-16.359,0.592 -35.471,-3.894 -55.471,-19.177l0,-6.679l32.039,-23.837Z" style="fill:#b398d4;fill-rule:nonzero;"/>
        <path d="M234.71,434.57l-32.039,23.837l0,-91.743l16.01,33.945l0,0.016l16.029,33.945Z" style="fill:#6f5390;fill-rule:nonzero;"/>
        <path d="M202.671,309.843l31.934,31.639l-31.934,25.181l0,-56.82Z" style="fill:#51386f;fill-rule:nonzero;"/>
        <path d="M219.187,398.767l-0.506,1.841l-16.01,-33.945l31.934,-25.182l-15.418,57.286Z" style="fill:#9a7dbd;fill-rule:nonzero;"/>
        <path d="M246.888,490.333c-16.29,-1.008 -33.956,-6.376 -51.326,-19.511c1.464,1.04 22.562,15.78 51.326,19.511" style="fill:#e1d1f4;fill-rule:nonzero;"/>
        <path d="M195.475,212.125l0,258.633l-0.697,-258.858l0.697,0.225Z" style="fill:#e1d1f4;fill-rule:nonzero;"/>
        <path d="M194.709,186.895l0.069,25.005l-1.376,-0.447c-7.073,0.463 -9.46,-0.049 -12.945,-0.337c-14.373,-1.202 -26.133,-24.221 7.91,-24.221l6.342,0Z" style="fill:#e1d1f4;fill-rule:nonzero;"/>
      </g>
    </g>
  </g>
</svg>
